<?xml version="1.0" encoding="UTF-8"?>
<svg id="_图层_1" data-name="图层 1" xmlns="http://www.w3.org/2000/svg" xmlns:xlink="http://www.w3.org/1999/xlink" viewBox="0 0 491.87 129.7">
  <defs>
    <style>
      .cls-1 {
        fill: none;
      }

      .cls-2 {
        font-family: SegoeScript-Bold, 'Segoe Script';
        font-size: 72px;
        font-weight: 700;
      }

      .cls-3 {
        clip-path: url(#clippath);
      }
    </style>
    <clipPath id="clippath">
      <rect class="cls-1" x=".02" width="129.71" height="129.7"/>
    </clipPath>
  </defs>
  <g class="cls-3">
    <path d="M82,76.73l.04.04,43.56,43.89c1.99,2.01,2,5.24.01,7.25l-.09.09c-.96.98-2.27,1.53-3.64,1.54-1.37.01-2.69-.52-3.66-1.48l-.04-.04-43.56-43.89c-1.99-2.01-1.99-5.24,0-7.25l.09-.09c.96-.97,2.27-1.53,3.64-1.54,1.37,0,2.69.52,3.66,1.49h0ZM52.25,90.85l.04.04,29.48,29.78c1.99,2.01,1.99,5.25,0,7.26l-.09.09c-2,2.03-5.27,2.04-7.3.04-.01-.01-.02-.02-.04-.04l-29.48-29.78c-1.99-2.01-1.99-5.25,0-7.26l.09-.09c.96-.97,2.27-1.52,3.64-1.53,1.37,0,2.68.53,3.66,1.49M10.98,90.84l.04.04,29.48,29.78c1.99,2.01,1.99,5.25,0,7.26l-.09.09c-.96.97-2.27,1.52-3.64,1.53-1.37,0-2.68-.53-3.66-1.49l-.04-.04L3.59,98.23c-1.99-2.01-1.99-5.25,0-7.26l.09-.09c.96-.97,2.27-1.52,3.64-1.53,1.37,0,2.68.53,3.66,1.49M98.69,46.09l.04.04,29.48,29.79c1.99,2.01,1.99,5.25,0,7.26l-.09.09c-.96.97-2.27,1.52-3.64,1.53-1.37,0-2.68-.53-3.66-1.49l-.04-.04-29.48-29.79c-1.99-2.01-1.99-5.25,0-7.26l.09-.09c.96-.97,2.27-1.52,3.64-1.53,1.37,0,2.68.53,3.66,1.49h0ZM36.12.09c19.95,0,36.12,16.5,36.12,36.85s-16.17,36.85-36.12,36.85S0,57.29,0,36.94,16.17.09,36.12.09M96.1,3.98l.04.04,29.48,29.79c1.99,2.01,1.99,5.25,0,7.26l-.09.09c-.96.97-2.27,1.52-3.64,1.53-1.37,0-2.68-.53-3.66-1.49l-.04-.04-29.48-29.79c-1.99-2.01-1.99-5.25,0-7.26l.09-.09c.96-.97,2.27-1.52,3.64-1.53,1.37,0,2.68.53,3.66,1.49"/>
  </g>
  <text class="cls-2" transform="translate(143.89 93.02)"><tspan x="0" y="0">Ariakage</tspan></text>
</svg>